<?xml version="1.0" encoding="utf-8"?>
<!-- Generator: Adobe Illustrator 16.0.0, SVG Export Plug-In . SVG Version: 6.00 Build 0)  -->
<!DOCTYPE svg PUBLIC "-//W3C//DTD SVG 1.1//EN" "http://www.w3.org/Graphics/SVG/1.1/DTD/svg11.dtd">
<svg version="1.1" id="Layer_1" xmlns="http://www.w3.org/2000/svg" xmlns:xlink="http://www.w3.org/1999/xlink" x="0px" y="0px"
	 width="100px" height="100px" viewBox="0 0 100 100" enable-background="new 0 0 100 100" xml:space="preserve">
<g>
	<path fill="#E0E0E0" d="M49.149,13.407c1.429,0,2.856,0,4.284,0c6.177,0.476,11.143,2.161,15.549,4.408
		c-7.07,7.376-14.293,14.598-21.669,21.668c-2.199-2.849-4.603-5.135-9.793-4.651c-5.073,0.473-8.895,5.029-8.937,10.038
		c-0.069,8.223,9.36,12.908,16.282,8.325c1.818-1.203,3.487-3.242,5.142-4.896c4.932-4.933,9.903-9.98,14.813-14.937
		c4.053,3.649,7.931,7.809,11.997,11.875c0.426,0.425,1.707,1.419,1.714,1.591c0.016,0.372-2.646,2.769-2.938,3.061
		c-2.988,2.989-6.021,6.045-9.059,8.815c-2.107-4.432-9.309-6.004-13.956-3.184c-2.84,1.723-4.656,4.488-4.775,8.324
		c-0.164,5.277,3.596,9.867,8.815,10.405c7.234,0.747,10.174-4.421,13.711-7.957c5.957-5.957,12.144-12.167,17.996-17.75
		c0.229,12.142-3.987,20.899-9.917,27.055c-5.938,6.164-13.836,11.097-24.974,11.874c-1.428,0-2.855,0-4.285,0
		C38.762,86.561,30.758,82.427,25.032,76.7c-5.725-5.726-9.865-13.726-10.772-24.117c0-1.429,0-2.856,0-4.285
		c0.602-10.014,5.32-18.594,10.896-24.117C31.061,18.33,38.947,14.214,49.149,13.407z"/>
</g>
</svg>
